<svg width="1440" height="718" viewBox="0 0 1440 718" fill="none" xmlns="http://www.w3.org/2000/svg">
<mask id="mask0_1252_1944" style="mask-type:alpha" maskUnits="userSpaceOnUse" x="0" y="0" width="1440" height="718">
<rect width="1440" height="718" rx="80" fill="url(#paint0_radial_1252_1944)"/>
</mask>
<g mask="url(#mask0_1252_1944)">
<path fill-rule="evenodd" clip-rule="evenodd" d="M340.113 104C201.979 104 90 217.735 90 355.746C90 493.757 201.979 607.492 340.113 607.492C394.652 607.492 421.953 673.443 383.371 711.991L164.098 931.07C65.4273 1029.65 66.7531 1190.81 165.424 1289.4C264.095 1387.98 425.397 1389.3 524.068 1290.72L744.271 1070.71C781.792 1033.23 845.907 1059.8 845.907 1112.84C845.907 1250.85 959.742 1362.73 1097.88 1362.73C1236.01 1362.73 1349.85 1250.85 1349.85 1112.84V369.85C1350.05 363.831 1350.05 357.805 1349.84 351.785C1349.27 283.851 1321.12 222.379 1276.13 177.656C1230.9 132.242 1168.57 104 1099.73 104H340.113ZM215.987 355.747C215.987 425.265 272.392 481.62 341.971 481.62H467.761C537.448 481.62 593.94 538.112 593.94 607.799V733.366C593.94 802.883 650.345 859.239 719.925 859.239H845.715C915.401 859.239 971.894 915.731 971.894 985.418V1110.98C971.894 1180.5 1028.3 1236.86 1097.88 1236.86C1167.46 1236.86 1223.86 1180.5 1223.86 1110.98V733.366C1223.86 663.848 1167.46 607.493 1097.88 607.493H972.088C902.402 607.493 845.909 551.001 845.909 481.314V355.747C845.909 286.229 789.504 229.874 719.925 229.874H341.971C272.392 229.874 215.987 286.229 215.987 355.747ZM215.987 1110.98C215.987 1041.47 272.454 985.111 341.971 985.111C411.489 985.111 467.956 1041.47 467.956 1110.98C467.956 1180.5 411.489 1236.86 341.971 1236.86C272.454 1236.86 215.987 1180.5 215.987 1110.98Z" fill="url(#paint1_radial_1252_1944)"/>
<path d="M340.113 103C201.418 103 89 217.191 89 355.746C89 494.301 201.418 608.492 340.113 608.492C393.761 608.492 420.616 673.366 382.664 711.284L163.391 930.363C64.3228 1029.34 65.6622 1191.14 164.717 1290.1C263.771 1389.07 425.707 1390.41 524.774 1291.43L744.978 1071.42C781.869 1034.56 844.907 1060.69 844.907 1112.84C844.907 1251.41 959.201 1363.73 1097.88 1363.73C1236.55 1363.73 1350.85 1251.41 1350.85 1112.84V369.867C1351.05 363.835 1351.05 357.796 1350.84 351.763C1350.26 283.557 1321.99 221.842 1276.83 176.947C1231.43 131.356 1168.84 103 1099.73 103H340.113ZM341.971 480.62C272.943 480.62 216.987 424.711 216.987 355.747C216.987 286.782 272.943 230.874 341.971 230.874H719.925C788.953 230.874 844.909 286.782 844.909 355.747V481.314C844.909 551.553 901.849 608.493 972.088 608.493H1097.88C1166.91 608.493 1222.86 664.401 1222.86 733.366V1110.98C1222.86 1179.95 1166.91 1235.86 1097.88 1235.86C1028.85 1235.86 972.894 1179.95 972.894 1110.98V985.418C972.894 915.179 915.954 858.239 845.715 858.239H719.925C650.897 858.239 594.94 802.33 594.94 733.366V607.799C594.94 537.56 538 480.62 467.761 480.62H341.971ZM216.987 1110.98C216.987 1042.02 273.005 986.111 341.971 986.111C410.938 986.111 466.956 1042.02 466.956 1110.98C466.956 1179.95 410.938 1235.86 341.971 1235.86C273.005 1235.86 216.987 1179.95 216.987 1110.98Z" stroke="url(#paint2_linear_1252_1944)" stroke-opacity="0.5" stroke-width="2"/>
</g>
<rect width="1440" height="297" transform="matrix(1 0 0 -1 0 718)" fill="url(#paint3_linear_1252_1944)"/>
<defs>
<radialGradient id="paint0_radial_1252_1944" cx="0" cy="0" r="1" gradientUnits="userSpaceOnUse" gradientTransform="translate(93.7144 60.1325) rotate(20.1009) scale(1673.96 2222.45)">
<stop stop-color="#F9F9F9"/>
<stop offset="1" stop-color="#F0F0F0"/>
</radialGradient>
<radialGradient id="paint1_radial_1252_1944" cx="0" cy="0" r="1" gradientUnits="userSpaceOnUse" gradientTransform="translate(175.5 218.187) rotate(36.1118) scale(1698.3 3339.41)">
<stop stop-color="#151515"/>
<stop offset="1" stop-color="#222222"/>
</radialGradient>
<linearGradient id="paint2_linear_1252_1944" x1="1292.5" y1="220.5" x2="356.5" y2="631.5" gradientUnits="userSpaceOnUse">
<stop stop-color="white" stop-opacity="0.5"/>
<stop offset="1" stop-color="#616161" stop-opacity="0.3"/>
</linearGradient>
<linearGradient id="paint3_linear_1252_1944" x1="720" y1="0" x2="720" y2="297" gradientUnits="userSpaceOnUse">
<stop stop-color="#151515"/>
<stop offset="1" stop-color="#151515" stop-opacity="0"/>
</linearGradient>
</defs>
</svg>
